Coordinates
version=1
nRows=8
nColumns=40
inDegrees=yes

Units are S.I. units (second, meters, Newtons, ...)
Angles are in degrees.

endheader
time	pelvis_tilt	pelvis_list	pelvis_rotation	pelvis_tx	pelvis_ty	pelvis_tz	hip_flexion_r	hip_adduction_r	hip_rotation_r	knee_angle_r	knee_angle_r_beta	ankle_angle_r	subtalar_angle_r	mtp_angle_r	hip_flexion_l	hip_adduction_l	hip_rotation_l	knee_angle_l	knee_angle_l_beta	ankle_angle_l	subtalar_angle_l	mtp_angle_l	lumbar_extension	lumbar_bending	lumbar_rotation	arm_flex_r	arm_add_r	arm_rot_r	elbow_flex_r	pro_sup_r	wrist_flex_r	wrist_dev_r	arm_flex_l	arm_add_l	arm_rot_l	elbow_flex_l	pro_sup_l	wrist_flex_l	wrist_dev_l
     25.39828571	     -2.53382040	     -4.38727489	    -10.03085986	      0.95719548	      0.92981820	      0.46684795	     23.09382714	     -1.36619962	    -10.37898617	     16.71224913	     16.71224913	      5.18453607	      3.18084586	      2.02482470	      1.89096076	     -3.17053123	    -12.33567429	     15.94408517	     15.94408517	     17.56970451	    -11.37856430	     -1.95379066	    -10.56385504	      6.49409129	      0.58458821	    -18.10200752	    -13.23476163	    -13.35579477	     31.47461956	     46.91054743	      0.00000000	      0.00000000	     28.54852809	    -20.91616624	     -9.18375640	     81.02343227	     47.69401049	      0.00000000	      0.00000000
     25.41657143	     -2.55252621	     -4.15300711	    -10.34233034	      0.95908670	      0.92869800	      0.46986528	     22.65154589	     -1.41251309	    -10.55292811	     16.36631793	     16.36631793	      4.79054195	      3.96741306	      1.46072243	      0.95053152	     -2.93405038	    -12.79650479	     15.16716725	     15.16716725	     17.68836891	    -10.97497292	     -2.45944249	    -10.37306828	      6.39188684	      0.72964195	    -18.62497483	    -13.15939645	    -13.66867117	     32.03498810	     46.88750340	      0.00000000	      0.00000000	     28.67747760	    -21.06117518	     -9.85372491	     82.93378729	     47.78201078	      0.00000000	      0.00000000
     25.43485714	     -2.61654595	     -3.95811841	    -10.67785320	      0.96108486	      0.92738415	      0.47306824	     22.32081634	     -1.40760400	    -10.62798575	     16.30470271	     16.30470271	      4.15377188	      4.40584746	      0.10969473	      0.15082408	     -2.76562617	    -13.21308022	     14.59075208	     14.59075208	     17.79566608	    -10.75467349	     -3.06653420	    -10.17073929	      6.37175217	      0.66183787	    -18.85116157	    -13.14175793	    -14.09813089	     32.80577544	     46.85626358	      0.00000000	      0.00000000	     28.46512153	    -21.27720071	    -10.98210856	     85.16522346	     47.90742642	      0.00000000	      0.00000000
     25.45314286	     -2.83070011	     -3.88128027	    -11.01718882	      0.96300080	      0.92596477	      0.47652667	     22.20968559	     -1.22732133	    -10.49810969	     16.52486196	     16.52486196	      3.91901802	      4.50728208	     -0.03678536	     -0.31725024	     -2.79197240	    -13.44024579	     14.39476142	     14.39476142	     18.09788471	    -10.84407217	     -3.13788447	     -9.77016946	      6.52369126	      0.86210353	    -18.74061692	    -13.16855481	    -14.12625479	     32.88192318	     46.85345059	      0.00000000	      0.00000000	     28.87024055	    -21.50335030	    -11.22673415	     85.58339609	     47.93471242	      0.00000000	      0.00000000
     25.47142857	     -2.74687526	     -3.68456530	    -11.39846765	      0.96526943	      0.92500082	      0.48012072	     21.98991846	     -1.23918763	    -10.18633045	     17.18547999	     17.18547999	      3.65628292	      4.31222455	     -1.11222009	     -1.36058862	     -2.57425662	    -13.91259460	     13.70536844	     13.70536844	     18.28567353	    -10.46545690	     -3.15194992	     -9.77469281	      6.44660288	      1.24826405	    -18.63210758	    -13.14571761	    -14.31300487	     33.13393587	     46.84415649	      0.00000000	      0.00000000	     28.89198772	    -21.21729631	    -12.10616472	     87.48679773	     48.03173141	      0.00000000	      0.00000000
     25.48971429	     -2.90778812	     -3.69913902	    -11.75083512	      0.96732871	      0.92395945	      0.48393925	     21.84585901	     -0.90898854	     -9.70809447	     17.52724274	     17.52724274	      2.80528845	      3.63694377	     -3.26084871	     -1.93430288	     -2.70814175	    -14.25049914	     13.48515630	     13.48515630	     18.57705276	    -10.35291215	     -3.00362649	     -9.62799844	      6.66641015	      0.74449255	    -17.89736956	    -13.29484608	    -14.81578128	     33.72692793	     46.82581262	      0.00000000	      0.00000000	     27.95079885	    -21.35249843	    -14.19087576	     90.16782751	     48.22114265	      0.00000000	      0.00000000
     25.50800000	     -3.02371345	     -3.69961309	    -12.04829848	      0.96929794	      0.92315492	      0.48783679	     21.83617459	     -0.65096151	     -9.23171806	     18.28847282	     18.28847282	      2.81405766	      3.11503298	     -3.99315403	     -2.49047765	     -2.83119947	    -14.51222869	     13.34141489	     13.34141489	     18.79178470	    -10.31539880	     -2.74827324	     -9.50780458	      6.87329790	      0.87423880	    -17.20258229	    -13.36022311	    -14.86170756	     33.81527053	     46.81464610	      0.00000000	      0.00000000	     27.99238868	    -21.36292395	    -14.82051680	     91.00533839	     48.28243216	      0.00000000	      0.00000000
     25.52628571	     -3.13298633	     -3.75701499	    -12.27701722	      0.97122734	      0.92262214	      0.49193471	     21.80983781	     -0.30655138	     -8.65474507	     19.04728024	     19.04728024	      2.90489656	      2.31739171	     -4.44848114	     -2.99526183	     -3.06139050	    -14.73841457	     13.33438181	     13.33438181	     19.03950092	    -10.25162012	     -2.37201914	     -9.42517811	      7.07715243	      0.86716533	    -16.46849629	    -13.44989123	    -14.98723808	     34.04640427	     46.80285018	      0.00000000	      0.00000000	     27.88389299	    -21.31061363	    -15.59047835	     92.05033009	     48.35531913	      0.00000000	      0.00000000
